<svg xmlns="http://www.w3.org/2000/svg" xmlns:xlink="http://www.w3.org/1999/xlink" viewBox="0 0 327 188"><style>.st2{fill:#fff}.st7{fill:#004753}.st9{fill:#052528}.st20{opacity:.25;fill:#041d1e}.st27{fill:#e2b4aa}.st28{fill:#04797f}.st29{fill:none;stroke:#fff;stroke-width:.2075;stroke-linecap:round;stroke-miterlimit:10}.st30{opacity:.28}.st31{fill:#8f405f}.st32{fill:#044751}.st35{fill:#00d8a5}</style><defs><ellipse id="SVGID_1_" transform="matrix(1 -.0023 .0023 1 -.2 .4)" cx="163.6" cy="103" rx="82.2" ry="82.2"/></defs><clipPath id="SVGID_2_"><use xlink:href="#SVGID_1_" overflow="visible"/></clipPath><path transform="matrix(1 -.0023 .0023 1 -.2 .3)" clip-path="url(#SVGID_2_)" fill="#00d8a5" d="M32.2-36.4h233.2V195H32.2z"/><defs><circle id="SVGID_3_" cx="163.5" cy="103" r="82.2"/></defs><clipPath id="SVGID_4_"><use xlink:href="#SVGID_3_" overflow="visible"/></clipPath><g clip-path="url(#SVGID_4_)"><path class="st2" d="M133.3 49c0 1.8-1.5 2.5-3.3 2.5H77.6c-1.8 0-8.4 2.2-8.4.4l-4-1.5c0-1.8 6.4-8.7 6.5-8.8h51.6c1.8.1 10 7.4 10 7.4z"/></g><defs><ellipse id="SVGID_5_" transform="matrix(1 -.0023 .0023 1 -.2 .4)" cx="163.4" cy="102.9" rx="82.2" ry="82.2"/></defs><clipPath id="SVGID_6_"><use xlink:href="#SVGID_5_" overflow="visible"/></clipPath><path transform="matrix(1 -.0023 .0023 1 -.3 .3)" clip-path="url(#SVGID_6_)" fill="#064d54" d="M43.3 69.3h135.3v130H43.3z"/><defs><circle id="SVGID_7_" cx="163.5" cy="103" r="82.2"/></defs><clipPath id="SVGID_8_"><use xlink:href="#SVGID_7_" overflow="visible"/></clipPath><path clip-path="url(#SVGID_8_)" fill="#043a3f" d="M178.5 69.2l-23.3.1.8 117.3 22.7 9.2z"/><defs><circle id="SVGID_9_" cx="163.5" cy="103" r="82.2"/></defs><clipPath id="SVGID_10_"><use xlink:href="#SVGID_9_" overflow="visible"/></clipPath><linearGradient id="SVGID_11_" gradientUnits="userSpaceOnUse" x1="-4136.6" y1="-7495.7" x2="-4136.6" y2="-7364" gradientTransform="matrix(-1 .0094 .0083 .8819 -3907.9 6718.6)"><stop offset="0" stop-color="#fff" stop-opacity="0"/><stop offset="0" stop-color="#044a55" stop-opacity=".7"/><stop offset="1" stop-color="#06232a" stop-opacity=".9"/><stop offset="1" stop-color="#79c8b2" stop-opacity=".3"/><stop offset="1" stop-color="#00373f"/><stop offset="1" stop-color="#04252a"/></linearGradient><path clip-path="url(#SVGID_10_)" fill="url(#SVGID_11_)" d="M155.2 69.3l23.2-.1.4 115.8-23.1.5z"/><defs><circle id="SVGID_12_" cx="163.5" cy="103" r="82.2"/></defs><clipPath id="SVGID_13_"><use xlink:href="#SVGID_12_" overflow="visible"/></clipPath><g clip-path="url(#SVGID_13_)"><path class="st7" d="M156.5 61.2l-.1.5c-.4 1-1.8 1.4-2 1.4v.1h-9.1V63c-.1-.4-.1-.9-.3-1.3-.8-2.4-2.9-3.6-5.5-4.6h-1.1c-3.3 0-5.9 3-6.2 6h-10.1l-4.1.1H57.3v-.1c-.2-.5-1.1-4-1-4.5.2-1.1.6-2.1 1.1-3 1.3-2.2 3.2-3.5 3.2-3.5l4.7-2.1s.3 1.1 4.4 1l61.5-.1c1.3-.2 2-2.4 2-2.4s19.9 1.9 22.9 6.3c.5.7.6 1.9.5 2.7-.1 1.1-.2 2.6-.1 3.7z"/></g><defs><circle id="SVGID_14_" cx="163.5" cy="103" r="82.2"/></defs><clipPath id="SVGID_15_"><use xlink:href="#SVGID_14_" overflow="visible"/></clipPath><g clip-path="url(#SVGID_15_)"><path class="st9" d="M128.2 50.6l-.3-.1c-.4-.2-.6-.7-.4-1.1l2.8-6.3c.2-.4.7-.6 1.1-.4.4.2.6.7.4 1.1l-2.8 6.3c-.2.3-.5.5-.8.5z"/></g><defs><circle id="SVGID_16_" cx="163.5" cy="103" r="82.2"/></defs><clipPath id="SVGID_17_"><use xlink:href="#SVGID_16_" overflow="visible"/></clipPath><g opacity=".3" clip-path="url(#SVGID_17_)"><path d="M138.2 57.2a6.3 6.3 0 0 0-6.2 5.9l-10.1-.1v.1l3.8-3.4c4-3.4 9-3.2 12.5-2.5z" fill="#041d1e"/></g><defs><circle id="SVGID_18_" cx="163.5" cy="103" r="82.2"/></defs><clipPath id="SVGID_19_"><use xlink:href="#SVGID_18_" overflow="visible"/></clipPath><path d="M156.7 62c0 1-.8 1-1.7 1h-.7l-9.2.2-.3-1.2h11.9z" clip-path="url(#SVGID_19_)" fill="#052528"/><defs><circle id="SVGID_20_" cx="163.5" cy="103" r="82.2"/></defs><clipPath id="SVGID_21_"><use xlink:href="#SVGID_20_" overflow="visible"/></clipPath><path d="M132.3 62c0 1 .3 1-.6 1h-1.8l-26 .2-.3-1.2h28.7z" clip-path="url(#SVGID_21_)" fill="#052528"/><defs><circle id="SVGID_22_" cx="163.5" cy="103" r="82.2"/></defs><clipPath id="SVGID_23_"><use xlink:href="#SVGID_22_" overflow="visible"/></clipPath><g opacity=".2" clip-path="url(#SVGID_23_)"><linearGradient id="SVGID_24_" gradientUnits="userSpaceOnUse" x1="92.7" y1="119.1" x2="105.7" y2="145.6" gradientTransform="matrix(1 0 0 -1 0 187.9)"><stop offset="0" stop-color="#fff" stop-opacity="0"/><stop offset="0" stop-color="#eaf8f7" stop-opacity="0"/><stop offset=".1" stop-color="#b9e8e4" stop-opacity=".1"/><stop offset=".2" stop-color="#8dd9d3" stop-opacity=".2"/><stop offset=".2" stop-color="#67ccc5" stop-opacity=".2"/><stop offset=".3" stop-color="#47c1b8" stop-opacity=".3"/><stop offset=".4" stop-color="#2db8ae" stop-opacity=".4"/><stop offset=".5" stop-color="#19b1a7" stop-opacity=".5"/><stop offset=".6" stop-color="#0bada1" stop-opacity=".6"/><stop offset=".8" stop-color="#02aa9e" stop-opacity=".8"/><stop offset="1" stop-color="#00a99d"/></linearGradient><path d="M128.7 55.5c0 1.8-1.5 3.3-3.3 3.3H73a3.3 3.3 0 0 1-3.3-3.3c0-1.8 1.5-3.3 3.3-3.3h52.4c1.8 0 3.3 1.5 3.3 3.3z" fill="url(#SVGID_24_)"/></g><defs><circle id="SVGID_25_" cx="163.5" cy="103" r="82.2"/></defs><clipPath id="SVGID_26_"><use xlink:href="#SVGID_25_" overflow="visible"/></clipPath><path d="M100.2 53.5c0 .4.3.8.7.8l3.7.1c.4 0 .8-.3.8-.7l-5.2-.2z" opacity=".3" clip-path="url(#SVGID_26_)" fill="#041d1e"/><defs><circle id="SVGID_27_" cx="163.5" cy="103" r="82.2"/></defs><clipPath id="SVGID_28_"><use xlink:href="#SVGID_27_" overflow="visible"/></clipPath><path d="M154 55.3l-6.7-2s1.8-.9 3.5-.6c3.6.8 3.2 2.6 3.2 2.6z" clip-path="url(#SVGID_28_)" fill="#fff"/><defs><circle id="SVGID_29_" cx="163.5" cy="103" r="82.2"/></defs><clipPath id="SVGID_30_"><use xlink:href="#SVGID_29_" overflow="visible"/></clipPath><path d="M156.6 56.3s-2.1 0-2.5.6c-.4.6-.1 1.6 0 2.8.1 1.1 2.4 1.5 2.4 1.5l.1-4.9z" opacity=".3" clip-path="url(#SVGID_30_)" fill="#041d1e"/><defs><circle id="SVGID_31_" cx="163.5" cy="103" r="82.2"/></defs><clipPath id="SVGID_32_"><use xlink:href="#SVGID_31_" overflow="visible"/></clipPath><g clip-path="url(#SVGID_32_)"><path class="st9" d="M144.2 63.4c0 1.1-.3 2.1-.9 2.9a5.3 5.3 0 0 1-4.5 2.4 5.4 5.4 0 0 1-4.1-8.9c1-1.2 2.5-1.9 4.1-1.9 3 .1 5.4 2.5 5.4 5.5z"/><circle class="st2" cx="139.1" cy="63.2" r="2.5"/><path class="st20" d="M141 61.1l-4.1 3.8c.6 2.1 2.8 1.5 3.9.4s2.1-2.6.2-4.2z"/></g><defs><circle id="SVGID_33_" cx="163.5" cy="103" r="82.2"/></defs><clipPath id="SVGID_34_"><use xlink:href="#SVGID_33_" overflow="visible"/></clipPath><path d="M125.9 49.7l-2.2 4.1s3.7 1.5 4.2-.9c.2-1.2-2-3.2-2-3.2z" opacity=".3" clip-path="url(#SVGID_34_)" fill="#041d1e"/><defs><circle id="SVGID_35_" cx="163.5" cy="103" r="82.2"/></defs><clipPath id="SVGID_36_"><use xlink:href="#SVGID_35_" overflow="visible"/></clipPath><path d="M126 49.7l-1.5 3.9s3 .3 3.1-1.8c.1-1.1-1.6-2.1-1.6-2.1z" clip-path="url(#SVGID_36_)" fill="#015e68"/><defs><circle id="SVGID_37_" cx="163.5" cy="103" r="82.2"/></defs><clipPath id="SVGID_38_"><use xlink:href="#SVGID_37_" overflow="visible"/></clipPath><g clip-path="url(#SVGID_38_)"><path transform="matrix(.9982 -.0592 .0592 .9982 -3.2 5.9)" class="st9" d="M97.1 51.2h.4v11.9h-.4z"/></g><g><defs><circle id="SVGID_39_" cx="163.5" cy="103" r="82.2"/></defs><clipPath id="SVGID_40_"><use xlink:href="#SVGID_39_" overflow="visible"/></clipPath><g clip-path="url(#SVGID_40_)"><path class="st9" d="M105.2 53.3c0 .4-.3.7-.7.7h-3.7c-.4 0-.8-.3-.8-.7"/></g></g><g><defs><circle id="SVGID_41_" cx="163.5" cy="103" r="82.2"/></defs><clipPath id="SVGID_42_"><use xlink:href="#SVGID_41_" overflow="visible"/></clipPath><g clip-path="url(#SVGID_42_)"><path class="st2" d="M153.6 57h2.9v.3h-2.9zM153.6 57.6h2.9v.3h-2.9zM153.6 58.2h2.9v.3h-2.9zM153.6 58.9h2.9v.3h-2.9zM153.6 59.5h2.9v.3h-2.9z"/></g></g><g><defs><circle id="SVGID_43_" cx="163.5" cy="103" r="82.2"/></defs><clipPath id="SVGID_44_"><use xlink:href="#SVGID_43_" overflow="visible"/></clipPath><path clip-path="url(#SVGID_44_)" fill="#004753" d="M101.4 45.1l23.6-1.2.2-2.3-18.8-.6z"/></g><g><path class="st27" d="M192.4 18.9l-2.7-1v-1.7l-.1-.7-.2-.7-.2-.8c.2-.1.5.1.6.4l.2.5v-.7l-.1-1.5c0-.3.3-.3.4-.1l.2 1.5c0 .1.1 0 .1 0 0-.4-.4-1.6 0-1.6l.1.1.1.3v.1l.2 1.1c0 .1.1.1.1 0l-.1-.6v-1l.3.5.2 1.2h.1v-1c0-.2.2-.2.2-.1l.2 1.4.1 2.5.1.7.2 1.2z"/></g><g><path class="st28" d="M181.3 35.7l-.7 12.7-.1.9-.5.3c0 .1.5.2-.5.4 0 .2.3.4.3.4h.1l-1.1-.1H178.2l-2.1-.1h-.3l-.4-.3v-.3-.1c0-1.3-1.4-3.7-1.6-5.7l-.2-4.3V36v-.1c.2.1 5.4 0 7-.1l.7-.1z"/></g><g><path class="st28" d="M180.5 49.2l-2 15.4-2.2-.4-.3-1.3c-1-4.3-2.1-6.8-1.7-9.8.2-1.5 1.2-2.9 1.2-3.9l.3.7h.1l2.8-.6 1.8-.1z"/></g><path class="st20" d="M180.1 35.9L178.9 47l-.3 2.3-.1.9-.1 1.2-.1.6s-1.7 11-1.9 11l-.3-.1c-1.1-4.3-2.2-6.7-1.8-9.8.2-1.5 1.2-3.4 1.2-3.9 0-1.3-1.4-3.7-1.6-5.7l-.2-4.3.3-.4c1.9-1.4 6.1-2.9 6.1-2.9z"/><g><path class="st7" d="M191.7 28.6c1.4-.2 1.7-1.4 1.6-2.4-.1-1-.9-1.2-1.9-1.1-1 .1-1.7-.2-1.6.8.1 1 1.5 2.8 1.9 2.7z"/><path class="st7" d="M189.8 25.7l-.1-8.5 2.4-.6c.3 1.1.9 5.5 1.3 8.8.2 1.3-.2 2.1-.2 2.1s-3.4-1.1-3.4-1.8z"/></g><path class="st7" d="M185.3 12.3l2.7 1.5 1 17.7-10.2 1.7s-3.1-17.3 6.5-20.9z"/><path class="st20" d="M184.3 11.8l3.3 2.2v17l-10.3 1.5c.1 0-2.7-17.4 7-20.7z"/><g><path class="st7" d="M178.8 66.3c-.4-.3-.7-.1-.7.5 0 .5-.3.6-.5.6-1.1.2-1.3-.4-1.3-.4s-.5 2 .4 2.1l2.8.2c1.3.1 2.6.2 2.6-.5 0-.3-1.1-.7-2.1-1.5l-1.2-1z"/><path class="st29" d="M179.1 66.5l-.6.5M179.5 66.9l-.5.5M180 67.2l-.6.6M180.4 67.6l-.5.5"/></g><g><path class="st28" d="M170.4 48.9s-2 1.7-2.8 3.1c-1.6 2.9-1.6 5.7-2.4 10.9l1.9 1.2 7.4-13.3-4.1-1.9z"/><circle class="st28" cx="172.5" cy="49.6" r="2.3"/></g><g><path class="st28" d="M177.8 36.7L175 49.1c-.3 1.7-.8 2.4-.8 2.4l-3.8-1.3s-.9-4-1-6.8l-.2-10.8c.2.1 8 4 8.6 4.1z"/></g><g><path class="st7" d="M167 65.5c-.1-.4-.4-.5-.8-.1-.3.4-.6.3-.8.1-1-.7-.7-1.1-.7-1.1s-1.7 1.1-1.1 1.8l1.9 2.1c1 .9 1.8 1.9 2.3 1.4.2-.2-.4-1.3-.6-2.5l-.2-1.7z"/><path class="st29" d="M167.1 65.9h-.9M167.2 66.5h-.8M167.2 67h-.7M167.3 67.6h-.7"/></g><path class="st28" d="M173.2 27.9s-3.1-.2-4 3c-.4 1.5.1 4.3 1.1 6 0 0 5.6 1.1 7.3.9a23 23 0 0 0 2.3-1.8l1.3.3.6-5.3-8.6-3.1z"/><g><path class="st2" d="M180.8 9.5c-.1 0-.1 0 0 0-.1 0-.1 0 0 0l-.1-.1.1.1z"/></g><g><path class="st27" d="M192.6 11l-.5.4-.5.4c-.7.5-1.3.5-1.8.4l-.5-.2-.5-.3-1.8-.8h-.1l-1.4-.6 4.2-3.2 1.8-.4c3.5-.3 3.8 2.2 3.8 2.2l-1.8 2.4-.9-.3z"/><path class="st27" d="M190.2 10.6l-1.2 1-.2.2-1.2 1.1-.9.9-.1.1-.6-.1c-.5-.1-1.4-.4-2.4-1.8-.8-1.2-1.4-1.2-1.3-1.2l.3-.3c3.4-2.4 7-3.1 7.2-3.2l.6.8c.5.6.8 1.7-.2 2.5z"/><g class="st30"><path class="st31" d="M192.7 10.6c-.2 0-.1.4-.1.4l.9.4s-.4-.8-.8-.8z"/></g><g class="st30"><path class="st31" d="M189.8 12.3l-.5-.2-.5-.3-.1.1-1.9 1.9c-.5-.5 0-2.3.2-2.8l.1-.2c.3-.4 1.3.3 2 .9l.4.4.3.2z"/></g></g><g><path class="st7" d="M179.3 15.2l-11.5 5.7-2.5-2.7s4.1-6.2 11.3-8.6l2.7 5.6z"/><path class="st7" d="M182.4 10.2c-.9-1.5-4.9-1.2-6.4-.3a3 3 0 0 0-1.1 4.2c.9 1.5 2.8 2 4.3 1.1 1.5-.9 4.1-3.5 3.2-5z"/></g><g><path class="st27" d="M162 25.6l1.8 1.8-.5 1.6-.1.7v.7l-.1.9c-.3 0-.4-.2-.4-.6 0-.3.1-.5-.1-.6l-.2.7-.4 1.5c-.1.3-.4.2-.4 0l.2-1.5c0-.1-.1-.1-.1 0-.2.4-.1 1.6-.5 1.6l-.1-.1V32v-.1l.1-1.1-.1-.1-.1.6-.3.9c-.2 0-.1-.2-.1-.6l.2-1.2s-.1-.1-.1 0l-.3.9c-.1.2-.2.2-.2.1l.2-1.4c.1-.8.6-1.6.7-2.4l.1-.7c.1-.3.7-.7.8-1.3z"/></g><g><circle class="st7" cx="166.6" cy="19.3" r="1.8"/><path class="st7" d="M168.3 20.1c-.1 0-.1.1 0 0l-4.6 7.8-2.4-.8a37 37 0 0 1 4-8.9l.4.3 2.6 1.6z"/></g><path class="st32" d="M186.8 74.7l-.3 1.5 1.4 1.7 1.3-1.5-.8-.8.2-.8zM197.6 98l1.5-.1.1 1.1-.6.7.6 1.1-1.1 1.7-2-.8.1-2.2zM197 119.2l-1.4 1.9 1 3.1 3.3 1.2 1.3-1.7-1.8-2.3-1.6.5.1-2.5zM192.6 135.3l4.9.3 1.4 6.5-2.1 5.6-6.3-2.9 1.6-3.2-1.5-2.3z"/><path class="st20" d="M190.6 139.2l6.4.8 1.9 2.1-6.7-.5z"/><path class="st20" d="M198.9 142.1l-2.2 5.6-2.6-1.2-1.9-4.9 4.8-1.6zM199.4 121.4l-2.9 2.8 3.4 1.2 1.3-1.7zM133.2 48.3l-1.2 3.1-32.3-.6 10-2.9z"/><g><path class="st2" d="M192.1 11.6l-.3.3c-.1-.1-.5-.6-.3-.9l.6.6z"/></g><path class="st7" d="M193.7 9.8s-.6-.1-.6-.7l.4.1c.2.2.2.4.2.6z"/><path class="st7" d="M198.4 8.3c.6-1.4-.1-2.1-2-2.5.4-.7-.1-1.6-.4-1.8-.6-.5-1.3-.4-1.9 0 .2-.9-1.7-1.7-3-.6-2.6 2.1-2.9 4.1-2.9 4.1-.2.3.5 1.2 1.6 1.1.5 0 .9-.7 1.3-1 .1 0 .3.3.4.2.5-.4.4-.4 1.2-.7.9-.1 2 1.7 2.7 2.2 1 .7 2.3.7 3-1z"/><path class="st27" d="M191 7.8s.4-.8-.2-1c-.5-.1-.9.9-.5 1.4.4.5.4 0 .4 0l.3-.4z"/><g><defs><path id="SVGID_45_" d="M185.2 12.7s-1.8-2.7-6.6-.4c-3.6 1.7-4.7 4.8-4.7 4.8-1.1 3.1-2.3 7.6-3.4 11.7l11.4 2.1s4.1-7.9 4.9-10.6c.4-1.4.1-6.2.1-6.2l-1.7-1.4z"/></defs><clipPath id="SVGID_46_"><use xlink:href="#SVGID_45_" overflow="visible"/></clipPath><path clip-path="url(#SVGID_46_)" fill="#fff" d="M165.5 8h26v23h-26z"/><g><defs><path id="SVGID_47_" d="M185.2 12.7s-1.8-2.7-6.6-.4c-3.6 1.7-4.7 4.8-4.7 4.8-1.1 3.1-2.3 7.6-3.4 11.7l11.4 2.1s4.1-7.9 4.9-10.6c.4-1.4.1-6.2.1-6.2l-1.7-1.4z"/></defs><clipPath id="SVGID_48_"><use xlink:href="#SVGID_47_" overflow="visible"/></clipPath><g clip-path="url(#SVGID_48_)"><path transform="matrix(.9996 -.027 .027 .9996 -.3 4.5)" class="st35" d="M166.3 11.4h.4v1h-.4z"/><path transform="rotate(-36.5 167.9 12.5)" class="st35" d="M167.7 12h.4v1h-.4z"/><path transform="rotate(-12.8 167.4 14.2)" class="st35" d="M166.8 14.1h1v.4h-1z"/><path transform="rotate(-51.2 169 13.7)" class="st35" d="M168.5 13.5h1v.4h-1z"/><path transform="matrix(.0628 -.998 .998 .0628 144 183.5)" class="st35" d="M169.2 14.9h1v.4h-1z"/><path transform="rotate(-62.5 168.2 16)" class="st35" d="M168 15.6h.4v1h-.4z"/><path transform="matrix(.9997 -.0258 .0258 .9997 -.3 4.2)" class="st35" d="M162.7 11.5h.4v1h-.4z"/><path transform="rotate(-36.5 164.3 12.6)" class="st35" d="M164.1 12.1h.4v1h-.4z"/><path transform="rotate(-12.6 163.8 14.4)" class="st35" d="M163.3 14.2h1v.4h-1z"/><path transform="rotate(-51.3 165.5 13.8)" class="st35" d="M165 13.6h1v.4h-1z"/><path transform="rotate(-86.3 166.1 15.2) scale(1.00002)" class="st35" d="M165.6 15h1v.4h-1z"/><path transform="rotate(-62.4 164.6 16.2)" class="st35" d="M164.4 15.7h.4v1h-.4z"/><g><path transform="matrix(.9997 -.0258 .0258 .9997 -.2 4.4)" class="st35" d="M170 11.3h.4v1h-.4z"/><path transform="rotate(-36.3 171.6 12.5)" class="st35" d="M171.4 11.9h.4v1h-.4z"/><path transform="rotate(-12.6 171 14.2)" class="st35" d="M170.6 14h1v.4h-1z"/><path transform="rotate(-51.3 172.8 13.6)" class="st35" d="M172.2 13.4h1v.4h-1z"/><path transform="rotate(-86.4 173.4 15) scale(.99997)" class="st35" d="M172.9 14.8h1v.4h-1z"/><path transform="rotate(-62.4 172 16)" class="st35" d="M171.7 15.5h.4v1h-.4z"/></g><g><path transform="rotate(-1.6 173.7 11.7)" class="st35" d="M173.5 11.2h.4v1h-.4z"/><path transform="rotate(-36.6 175 12.4)" class="st35" d="M174.9 11.9h.4v1h-.4z"/><path transform="rotate(-12.6 174.5 14)" class="st35" d="M174 13.9h1v.4h-1z"/><path transform="rotate(-51.4 176.2 13.5)" class="st35" d="M175.7 13.3h1v.4h-1z"/><path transform="matrix(.065 -.9979 .9979 .065 150.5 190.5)" class="st35" d="M176.4 14.7h1v.4h-1z"/><path transform="rotate(-62.5 175.4 15.9)" class="st35" d="M175.2 15.4h.4v1h-.4z"/></g><g><path transform="rotate(-1.4 166.6 17.1)" class="st35" d="M166.4 16.6h.4v1h-.4z"/><path transform="rotate(-36.6 168 17.8)" class="st35" d="M167.8 17.2h.4v1h-.4z"/><path transform="rotate(-12.6 167.5 19.5)" class="st35" d="M167 19.3h1v.4h-1z"/><path transform="rotate(-51.5 169.2 19)" class="st35" d="M168.7 18.7h1v.4h-1z"/><path transform="rotate(-86.4 169.8 20.3) scale(1.00005)" class="st35" d="M169.3 20.1h1v.4h-1z"/><path transform="rotate(-62.6 168.3 21.3)" class="st35" d="M168.1 20.8h.4v1h-.4z"/></g><g><path transform="rotate(-1.5 163 17.2) scale(.99996)" class="st35" d="M162.8 16.7h.4v1h-.4z"/><path transform="rotate(-36.6 164.4 17.8)" class="st35" d="M164.2 17.3h.4v1h-.4z"/><path transform="rotate(-12.7 164 19.6)" class="st35" d="M163.4 19.3h1v.4h-1z"/><path transform="rotate(-51.4 165.6 19)" class="st35" d="M165.1 18.8h1v.4h-1z"/><path transform="matrix(.0625 -.998 .998 .0625 135.5 185)" class="st35" d="M165.7 20.2h1v.4h-1z"/><path transform="rotate(-62.4 164.8 21.4)" class="st35" d="M164.6 20.9h.4v1h-.4z"/></g><g><path transform="rotate(-1.6 170.3 17)" class="st35" d="M170.1 16.5h.4v1h-.4z"/><path transform="rotate(-36.7 171.7 17.7)" class="st35" d="M171.5 17.1h.4v1h-.4z"/><path transform="rotate(-12.9 171.2 19.4)" class="st35" d="M170.7 19.2h1v.4h-1z"/><path transform="rotate(-51.4 172.9 18.8)" class="st35" d="M172.4 18.6h1v.4h-1z"/><path transform="rotate(-86.3 173.6 20.2) scale(1.00002)" class="st35" d="M173 20h1v.4h-1z"/><path transform="rotate(-62.4 172 21.2)" class="st35" d="M171.9 20.7h.4v1h-.4z"/></g><g><path transform="matrix(.9997 -.0234 .0234 .9997 -.3 4)" class="st35" d="M173.6 16.4h.4v1h-.4z"/><path transform="rotate(-36.5 175.2 17.6)" class="st35" d="M175 17h.4v1h-.4z"/><path transform="rotate(-12.8 174.7 19.3)" class="st35" d="M174.2 19.1h1v.4h-1z"/><path transform="rotate(-51 176.4 18.7)" class="st35" d="M175.9 18.5h1v.4h-1z"/><path transform="matrix(.0625 -.998 .998 .0625 145.9 195.5)" class="st35" d="M176.5 19.9h1v.4h-1z"/><path transform="rotate(-62.6 175.5 21.1)" class="st35" d="M175.3 20.6h.4v1h-.4z"/></g><g><path transform="rotate(-1.2 166.7 22.3) scale(1.00002)" class="st35" d="M166.5 21.8h.4v1h-.4z"/><path transform="rotate(-36.8 168 23)" class="st35" d="M167.9 22.4h.4v1h-.4z"/><path transform="rotate(-12.5 167.6 24.6)" class="st35" d="M167.1 24.5h1v.4h-1z"/><path transform="rotate(-51.2 169.3 24.1)" class="st35" d="M168.7 23.9h1v.4h-1z"/><path transform="rotate(-86.3 170 25.5) scale(1.00002)" class="st35" d="M169.4 25.3h1v.4h-1z"/><path transform="rotate(-62.4 168.4 26.5)" class="st35" d="M168.2 26h.4v1h-.4z"/><path transform="rotate(-1.8 163.1 22.4) scale(1.00001)" class="st35" d="M162.9 21.9h.4v1h-.4z"/><path transform="rotate(-36.5 164.5 23)" class="st35" d="M164.3 22.5h.4v1h-.4z"/><path transform="rotate(-12.7 164 24.7)" class="st35" d="M163.5 24.5h1v.4h-1z"/><path transform="rotate(-51.5 165.7 24.2)" class="st35" d="M165.2 24h1v.4h-1z"/><path transform="rotate(-86.2 166.3 25.6)" class="st35" d="M165.8 25.4h1v.4h-1z"/><path transform="rotate(-62.3 164.8 26.6)" class="st35" d="M164.6 26.1h.4v1h-.4z"/><g><path transform="matrix(.9996 -.027 .027 .9996 -.5 4.6)" class="st35" d="M170.2 21.7h.4v1h-.4z"/><path transform="rotate(-36.2 171.8 22.8)" class="st35" d="M171.6 22.3h.4v1h-.4z"/><path transform="rotate(-12.4 171.3 24.5)" class="st35" d="M170.8 24.4h1v.4h-1z"/><path transform="rotate(-51.1 173 24)" class="st35" d="M172.5 23.8h1v.4h-1z"/><path transform="matrix(.0625 -.998 .998 .0625 137.4 197.1)" class="st35" d="M173.1 25.2h1v.4h-1z"/><path transform="rotate(-62.6 172.1 26.4)" class="st35" d="M171.9 25.9h.4v1h-.4z"/></g><g><path transform="matrix(.9996 -.027 .027 .9996 -.5 4.7)" class="st35" d="M173.7 21.6h.4v1h-.4z"/><path transform="rotate(-36.6 175.3 22.7)" class="st35" d="M175.1 22.2h.4v1h-.4z"/><path transform="rotate(-12.6 174.8 24.4)" class="st35" d="M174.2 24.3h1v.4h-1z"/><path transform="rotate(-51.3 176.4 24)" class="st35" d="M175.9 23.7h1v.4h-1z"/><path transform="matrix(.0639 -.998 .998 .0639 140.5 200.5)" class="st35" d="M176.6 25.1h1v.4h-1z"/><path transform="rotate(-62.5 175.6 26.3)" class="st35" d="M175.4 25.8h.4v1h-.4z"/></g><g><path transform="matrix(.9996 -.0271 .0271 .9996 -.7 4.5)" class="st35" d="M166.6 27h.4v1h-.4z"/><path transform="rotate(-36.4 168.2 28.1)" class="st35" d="M168 27.6h.4v1h-.4z"/><path transform="rotate(-12.6 167.7 29.8)" class="st35" d="M167.2 29.7h1v.4h-1z"/><path transform="rotate(-51.4 169.4 29.3)" class="st35" d="M168.9 29.1h1v.4h-1z"/><path transform="rotate(-86.3 170 30.7) scale(1.00002)" class="st35" d="M169.5 30.5h1v.4h-1z"/><path transform="rotate(-62.5 168.6 31.7)" class="st35" d="M168.4 31.2h.4v1h-.4z"/></g><g><path transform="rotate(-1.4 163.2 27.6)" class="st35" d="M163 27.1h.4v1h-.4z"/><path transform="rotate(-36.5 164.6 28.2)" class="st35" d="M164.4 27.7h.4v1h-.4z"/><path transform="rotate(-12.8 164.1 30)" class="st35" d="M163.6 29.7h1v.4h-1z"/><path transform="rotate(-51.2 165.8 29.4)" class="st35" d="M165.3 29.2h1v.4h-1z"/><path transform="rotate(-86.4 166.5 30.8) scale(.99997)" class="st35" d="M166 30.6h1v.4h-1z"/><path transform="rotate(-62.4 165 31.8)" class="st35" d="M164.8 31.3h.4v1h-.4z"/></g><g><path transform="rotate(-1.6 170.5 27.4) scale(.99997)" class="st35" d="M170.3 26.9h.4v1h-.4z"/><path transform="rotate(-36.8 172 28)" class="st35" d="M171.7 27.5h.4v1h-.4z"/><path transform="rotate(-12.5 171.4 29.7)" class="st35" d="M170.9 29.5h1v.4h-1z"/><path transform="rotate(-51.4 173.1 29.2)" class="st35" d="M172.6 29h1v.4h-1z"/><path transform="matrix(.0641 -.9979 .9979 .0641 132 202)" class="st35" d="M173.2 30.4h1v.4h-1z"/><path transform="rotate(-62 172.3 31.6)" class="st35" d="M172.1 31.1h.4v1h-.4z"/></g><g><path transform="rotate(-1.6 174 27.3) scale(.99997)" class="st35" d="M173.8 26.8h.4v1h-.4z"/><path transform="rotate(-36.5 175.4 28)" class="st35" d="M175.2 27.4h.4v1h-.4z"/><path transform="rotate(-12.8 174.9 29.7)" class="st35" d="M174.4 29.5h1v.4h-1z"/><path transform="rotate(-51.2 176.6 29.1)" class="st35" d="M176.1 28.9h1v.4h-1z"/><path transform="rotate(-86.3 177.2 30.5) scale(1.00002)" class="st35" d="M176.7 30.3h1v.4h-1z"/><path transform="rotate(-62.4 175.8 31.5)" class="st35" d="M175.5 31h.4v1h-.4z"/></g></g><g><path transform="matrix(.9996 -.027 .027 .9996 -.3 4.9)" class="st35" d="M180.4 11.4h.4v1h-.4z"/><path transform="rotate(-36.4 182 12.5)" class="st35" d="M181.8 12h.4v1h-.4z"/><path transform="rotate(-12.7 181.5 14.3)" class="st35" d="M181 14.1h1v.4h-1z"/><path transform="rotate(-51.2 183.2 13.7)" class="st35" d="M182.6 13.5h1v.4h-1z"/><path transform="matrix(.0628 -.998 .998 .0628 157.2 197.6)" class="st35" d="M183.3 14.9h1v.4h-1z"/><path transform="rotate(-62.4 182.3 16)" class="st35" d="M182.1 15.6h.4v1h-.4z"/><path transform="rotate(-1.5 177 12) scale(1.00003)" class="st35" d="M176.8 11.5h.4v1h-.4z"/><path transform="rotate(-36.4 178.4 12.6)" class="st35" d="M178.2 12.1h.4v1h-.4z"/><path transform="rotate(-12.8 177.9 14.3)" class="st35" d="M177.4 14.1h1v.4h-1z"/><path transform="rotate(-51.3 179.6 13.8)" class="st35" d="M179.1 13.6h1v.4h-1z"/><path transform="rotate(-86.3 180.2 15.2) scale(1.00002)" class="st35" d="M179.7 15h1v.4h-1z"/><path transform="rotate(-62.5 178.7 16.2)" class="st35" d="M178.5 15.7h.4v1h-.4z"/><g><path transform="matrix(.9997 -.0258 .0258 .9997 -.2 4.8)" class="st35" d="M184.1 11.3h.4v1h-.4z"/><path transform="rotate(-36.4 185.7 12.4)" class="st35" d="M185.5 11.9h.4v1h-.4z"/><path transform="rotate(-12.6 185.2 14.2)" class="st35" d="M184.7 14h1v.4h-1z"/><path transform="rotate(-51.3 186.9 13.6)" class="st35" d="M186.3 13.4h1v.4h-1z"/><path transform="matrix(.0628 -.998 .998 .0628 160.8 201.2)" class="st35" d="M187 14.8h1v.4h-1z"/><path transform="rotate(-62.2 186 16)" class="st35" d="M185.8 15.5h.4v1h-.4z"/></g><g><path transform="rotate(-1.6 187.8 11.7)" class="st35" d="M187.6 11.2h.4v1h-.4z"/><path transform="rotate(-36.6 189.2 12.4)" class="st35" d="M189 11.8h.4v1h-.4z"/><path transform="rotate(-12.6 188.6 14)" class="st35" d="M188.1 13.9h1v.4h-1z"/><path transform="rotate(-51.3 190.3 13.5)" class="st35" d="M189.8 13.3h1v.4h-1z"/><path transform="rotate(-86.3 191 15) scale(1.00002)" class="st35" d="M190.5 14.7h1v.4h-1z"/><path transform="rotate(-62.4 189.5 15.9)" class="st35" d="M189.3 15.4h.4v1h-.4z"/></g><g><path transform="rotate(-1.4 180.7 17.1)" class="st35" d="M180.5 16.6h.4v1h-.4z"/><path transform="rotate(-36.6 182.1 17.8)" class="st35" d="M181.9 17.2h.4v1h-.4z"/><path transform="rotate(-12.6 181.6 19.5)" class="st35" d="M181.1 19.3h1v.4h-1z"/><path transform="rotate(-51.4 183.3 19)" class="st35" d="M182.8 18.7h1v.4h-1z"/><path transform="rotate(-86.4 184 20.3) scale(1.00005)" class="st35" d="M183.4 20.1h1v.4h-1z"/><path transform="rotate(-62.6 182.4 21.3)" class="st35" d="M182.2 20.8h.4v1h-.4z"/></g><g><path transform="rotate(-1.5 177.1 17.2) scale(.99996)" class="st35" d="M176.9 16.7h.4v1h-.4z"/><path transform="rotate(-36.5 178.5 17.8)" class="st35" d="M178.3 17.3h.4v1h-.4z"/><path transform="rotate(-12.7 178 19.6)" class="st35" d="M177.5 19.3h1v.4h-1z"/><path transform="rotate(-51.3 179.7 19)" class="st35" d="M179.2 18.8h1v.4h-1z"/><path transform="rotate(-86.4 180.4 20.4) scale(.99997)" class="st35" d="M179.8 20.2h1v.4h-1z"/><path transform="rotate(-62.3 178.9 21.4)" class="st35" d="M178.7 20.9h.4v1h-.4z"/></g><g><path transform="rotate(-1.6 184.4 17)" class="st35" d="M184.2 16.5h.4v1h-.4z"/><path transform="rotate(-36.8 185.8 17.7)" class="st35" d="M185.6 17.1h.4v1h-.4z"/><path transform="rotate(-12.6 185.3 19.4)" class="st35" d="M184.8 19.2h1v.4h-1z"/><path transform="rotate(-51.4 187 18.8)" class="st35" d="M186.5 18.6h1v.4h-1z"/><path transform="matrix(.0653 -.9979 .9979 .0653 155.2 206.2)" class="st35" d="M187.1 20h1v.4h-1z"/><path transform="rotate(-62.4 186.2 21.2)" class="st35" d="M186 20.7h.4v1h-.4z"/></g><g><path transform="matrix(.9997 -.0234 .0234 .9997 -.3 4.4)" class="st35" d="M187.7 16.4h.4v1h-.4z"/><path transform="rotate(-36.5 189.3 17.6)" class="st35" d="M189.1 17h.4v1h-.4z"/><path transform="rotate(-12.7 188.8 19.3)" class="st35" d="M188.3 19.1h1v.4h-1z"/><path transform="rotate(-51 190.5 18.7)" class="st35" d="M190 18.5h1v.4h-1z"/><path transform="rotate(-86.4 191.1 20.1) scale(.99997)" class="st35" d="M190.6 19.9h1v.4h-1z"/><path transform="rotate(-62.5 189.6 21.1)" class="st35" d="M189.4 20.6h.4v1h-.4z"/></g><g><path transform="rotate(-1.2 180.8 22.3) scale(1.00002)" class="st35" d="M180.6 21.8h.4v1h-.4z"/><path transform="rotate(-36.8 182.2 23)" class="st35" d="M182 22.4h.4v1h-.4z"/><path transform="rotate(-12.6 181.7 24.6)" class="st35" d="M181.2 24.4h1v.4h-1z"/><path transform="rotate(-51.2 183.4 24.1)" class="st35" d="M182.8 23.9h1v.4h-1z"/><path transform="rotate(-86.3 184 25.5) scale(1.00002)" class="st35" d="M183.5 25.3h1v.4h-1z"/><path transform="rotate(-62.5 182.5 26.5)" class="st35" d="M182.3 26h.4v1h-.4z"/><path transform="rotate(-1.8 177.2 22.4) scale(1.00001)" class="st35" d="M177 21.9h.4v1h-.4z"/><path transform="rotate(-36.4 178.6 23)" class="st35" d="M178.4 22.5h.4v1h-.4z"/><path transform="rotate(-12.7 178.1 24.7)" class="st35" d="M177.6 24.5h1v.4h-1z"/><path transform="rotate(-51.4 179.8 24.2)" class="st35" d="M179.3 24h1v.4h-1z"/><path transform="matrix(.0665 -.9978 .9978 .0665 142.9 204)" class="st35" d="M179.9 25.4h1v.4h-1z"/><path transform="rotate(-62.4 179 26.6)" class="st35" d="M178.7 26.1h.4v1h-.4z"/><g><path transform="matrix(.9996 -.027 .027 .9996 -.5 5)" class="st35" d="M184.3 21.7h.4v1h-.4z"/><path transform="rotate(-36.3 185.9 22.8)" class="st35" d="M185.7 22.3h.4v1h-.4z"/><path transform="rotate(-12.6 185.4 24.5)" class="st35" d="M184.9 24.4h1v.4h-1z"/><path transform="rotate(-51.1 187 24)" class="st35" d="M186.6 23.8h1v.4h-1z"/><path transform="matrix(.0625 -.998 .998 .0625 150.6 211.2)" class="st35" d="M187.2 25.2h1v.4h-1z"/><path transform="rotate(-62.4 186.2 26.4)" class="st35" d="M186 25.9h.4v1h-.4z"/></g><g><path transform="rotate(-1.5 188 22) scale(.99996)" class="st35" d="M187.8 21.6h.4v1h-.4z"/><path transform="rotate(-36.7 189.4 22.8)" class="st35" d="M189.2 22.2h.4v1h-.4z"/><path transform="rotate(-12.4 188.9 24.5)" class="st35" d="M188.3 24.3h1v.4h-1z"/><path transform="rotate(-51.3 190.5 24)" class="st35" d="M190 23.7h1v.4h-1z"/><path transform="matrix(.0638 -.998 .998 .0638 153.7 214.5)" class="st35" d="M190.7 25.1h1v.4h-1z"/><path transform="rotate(-62.5 189.7 26.3)" class="st35" d="M189.5 25.8h.4v1h-.4z"/></g><g><path transform="matrix(.9996 -.027 .027 .9996 -.7 4.9)" class="st35" d="M180.7 27h.4v1h-.4z"/><path transform="rotate(-36.4 182.3 28.1)" class="st35" d="M182.1 27.6h.4v1h-.4z"/><path transform="rotate(-12.6 181.8 29.8)" class="st35" d="M181.3 29.7h1v.4h-1z"/><path transform="rotate(-51.3 183.5 29.3)" class="st35" d="M183 29.1h1v.4h-1z"/><path transform="matrix(.065 -.9979 .9979 .065 141.5 212.5)" class="st35" d="M183.6 30.5h1v.4h-1z"/><path transform="rotate(-62.5 182.7 31.7)" class="st35" d="M182.5 31.2h.4v1h-.4z"/></g><g><path transform="rotate(-1.4 177.3 27.6)" class="st35" d="M177.1 27.1h.4v1h-.4z"/><path transform="rotate(-36.6 178.7 28.2)" class="st35" d="M178.5 27.7h.4v1h-.4z"/><path transform="rotate(-12.5 178.2 30)" class="st35" d="M177.7 29.7h1v.4h-1z"/><path transform="rotate(-51.1 180 29.4)" class="st35" d="M179.4 29.2h1v.4h-1z"/><path transform="rotate(-86.4 180.6 30.8) scale(1.00005)" class="st35" d="M180.1 30.6h1v.4h-1z"/><path transform="rotate(-62.4 179 31.8)" class="st35" d="M178.9 31.3h.4v1h-.4z"/></g><g><path transform="rotate(-1.6 184.6 27.4) scale(.99997)" class="st35" d="M184.4 26.9h.4v1h-.4z"/><path transform="rotate(-36.8 186 28)" class="st35" d="M185.8 27.5h.4v1h-.4z"/><path transform="rotate(-12.5 185.5 29.7)" class="st35" d="M185 29.5h1v.4h-1z"/><path transform="rotate(-51.3 187.2 29.2)" class="st35" d="M186.7 29h1v.4h-1z"/><path transform="matrix(.0639 -.998 .998 .0639 145.3 216.1)" class="st35" d="M187.4 30.4h1v.4h-1z"/><path transform="rotate(-62.1 186.4 31.6)" class="st35" d="M186.2 31.1h.4v1h-.4z"/></g><g><path transform="matrix(.9996 -.0271 .0271 .9996 -.7 5.1)" class="st35" d="M187.9 26.8h.4v1h-.4z"/><path transform="rotate(-36.6 189.5 28)" class="st35" d="M189.3 27.4h.4v1h-.4z"/><path transform="rotate(-12.6 189 29.7)" class="st35" d="M188.5 29.5h1v.4h-1z"/><path transform="rotate(-51.2 190.7 29.1)" class="st35" d="M190.2 28.9h1v.4h-1z"/><path transform="rotate(-86.3 191.3 30.5) scale(1.00002)" class="st35" d="M190.8 30.3h1v.4h-1z"/><path transform="rotate(-62.5 189.8 31.5)" class="st35" d="M189.6 31h.4v1h-.4z"/></g></g></g></g></g></g><path class="st20" d="M179.1 9.8l2.8 1.8-5.2 20.4-6.5-2.7 3.7-13.7c.9-3.5 1.9-5.3 5.2-5.8z"/><path class="st7" d="M183.3 9.8l.5 2-9.2 18.2-5.7-.8 3.3-11s2.2-8.7 6.9-9.1c.9 0 3.3.3 4.2.7z"/><path class="st20" d="M172.1 18.8l5.1-2.1s-1.7 11-8.1 12.6c-.4 0 3-10.5 3-10.5z"/></svg>
